/* XPM */
static char *result[] = {
/* columns rows colors chars-per-pixel */
"48 48 5 1 ",
"  c #CAB7AF",
". c #DCCBC3",
"X c #EEDFD7",
"o c #FFF3EB",
"O c None",
/* pixels */
"OOOOOOOOOOOOOOOOOOOOOOOOOOOOOOOOOOOOOOOOOOOOOOOO",
"OOOOOOOOOOOOOOOOOOOOOOOOOOOOOOOOOOOOOOOOOOOOOOOO",
"OOOOOOOOOOOOOOOOOOOOOOOOOOOOOOOOOOOOOOOOOOOOOOOO",
"OOOOOOOOOOOOOOOOOOOOOOOOOOOOOOOOOOOOOOOOOOOOOOOO",
"OOOOOOOOOOOOOOOOOOOOOOOOOOOOOOOOOOOOOOOOOOOOOOOO",
"OOOOOOOOOOOOOOOOOOOOOOOOOOOOOOOOOOOOOOOOOOOOOOOO",
"OOOOOOOOOOOOOOOOOOOOOOOOOOOOOOOOOOOOOOOOOOOOOOOO",
"OOOOOOOOOOOOOOOOOOOOOOOOOOOOOOOOOOOOOOOOOOOOOOOO",
"OOOOOOOOOOOOOOOOOOOOOOOOOOOOOOOOOOOOOOOOOOOOOOOO",
"OOOOOOOOOOOOOOOOOOOOOOOOOOOOOOOOOOOOOOOOOOOOOOOO",
"OOOOOOOOOOOOOOOOOOOOOOOOOOOOOOOOOOOOOOOOOOOOOOOO",
"OOOOOOOOOOOOOOOOOOOOOOOOOOOOOOOOOOOOOOOOOOOOOOOO",
"OOOOOOOOOOOOOOOOOOOOOOOOOOOOOOOOOOOOOOOOOOOOOOOO",
"OOOOOOOOOOOOOOOOOOOOOOOOOOOOOOOOOOOOOOOOOOOOOOOO",
"OOOOOOOOOOOOOOOOOOOOXOOOOOOOOOOOOOOOOOOOOOOOOOOO",
"OOOOOOOOOOOOOOOO.XX.XXXXX.XOOOOOOOOOOOOOOOOOOOOO",
"OOOOOOOOOOOOOOO ..X..XXX....OOOOOOOOOOOOOOOOOOOO",
"OOOOOOOOOOOOOOOO... ..... ..OOOOOO .XXXOOOOOOOOO",
"OOOOOOOO..OOOOOO .     OO OOOOOOOO..XX..OOOOOOOO",
"OOOOOXX...OOOOOOOOOOOOOOOOOOOOOOOO .XX..OOOOOOOO",
"OOOO .....XOOOOOOOOOOOOOOOOOOOOOOO....  OOOOOOOO",
"OOOO...OOOOOOOOOOOOOOOOOOOOOOOOOOO..OOOOOOXXOOOO",
"OOO...OOOOOOOOOOOOOOOOOOOOOOOOOOOOOOOOOOOO..XOOO",
"OOO..OOOOOOOOOOOOOOOOOOOOOOOOOOOOOOOOOOOOO..X.OO",
"OO...OOOOOOOOOOOOOOOOOOOOOOOOOOOOOOOOOOOOO..X..O",
"OO....OOOOOOOOOOOOOOOOOOOOOOOOOOOOOOOOOOO......O",
"OOO  OOOOOOOOOOOOOOOOOOOOOOOOOOOOOOOOOOOOOO ...O",
"OOOOOOOOOOOOOOOOOOOOOOOOOOOOOOOOOOOOOOOOOO  .OOO",
"OOOOOOOOOOOOOOOOOOOOOOOOOOOOOOOOOOOOOOOOOOOOOOOO",
"OOOOOOOOOOOOOOOOOOOOOOOOOOOOOOOOOOOOOOOOOOOOOOOO",
"OOOOOOOOOOOOOOOOOOOOOOOOOOOOOOOOOOOOOOOOOOOOOOOO",
"OO..OOOOOOOOOOOOOOOOOOOOOOOOOOOOOOOOOOOOOOOOOOOO",
"O..XOOOOOOOOOOOOOOOOOOOOOOOOOOOOOOOOOOOOOOOOOOOO",
"O..XXXOOOOOOOOOOOOOOOOOOOOOOOOOOOOOOOOOOOOOOOOOO",
"O...XXXOOOOOOOOOOOOOOOOOOOOOOOOOOOOOOOOOOOOOOOOO",
"OO...XXX..OOOOOOOOOOOOOOOOOOOOOOOOOOOOOOOOOOOOOO",
"OOO..XX....OOOOOOOOOOOOOOOOO.OOOOOOO.X....OOOOOO",
"OOOO ...  .OOOOOOOOOOOOOOOOOXX.OOOOO...XX.OOOOOO",
"OOOOO..OOOOOOOOOOXOOOOOO..XXXXX.OOOO.  ...OOOOOO",
"OOOOOOOOOOOOO.X...OOOOXX..X.XXoX.OOOO   OOOOOOOO",
"OOOOOOOOOOOO. .oX.OOO..XXXX.XXXX.OOOOOOOOOOOOOOO",
"OOOOOOOOOOOOO ....OOO  ...X..XX. OOOOOOOOOOOOOOO",
"OOOOOOOOOOOOOO.  OOOOO  ... ... OOOOOOOOOOOOOOOO",
"OOOOOOOOOOOOOOOOOOOOOOO ..  ..OOOOOOOOOOOOOOOOOO",
"OOOOOOOOOOOOOOOOOOOOOOOOOOOOOOOOOOOOOOOOOOOOOOOO",
"OOOOOOOOOOOOOOOOOOOOOOOOOOOOOOOOOOOOOOOOOOOOOOOO",
"OOOOOOOOOOOOOOOOOOOOOOOOOOOOOOOOOOOOOOOOOOOOOOOO",
"OOOOOOOOOOOOOOOOOOOOOOOOOOOOOOOOOOOOOOOOOOOOOOOO"
};
