/* XPM */
static char *result[] = {
/* columns rows colors chars-per-pixel */
"48 48 6 1 ",
"  c #B9A39B",
". c #CAB7AF",
"X c #DCCBC3",
"o c #EEDFD7",
"O c #FFF3EB",
"+ c None",
/* pixels */
"++++++++++++++++++++++++++++++++++++++++++++++++",
"++++++++++++++++++++++++++++++++++++++++++++++++",
"++++++++++++++++++++++++++++++++++++++++++++++++",
"++++++++++++++++++++++++++++++++++++++++++++++++",
"++++++++++++++++++++++++++++++++++++++++++++++++",
"++++++++++++++++++++++++++++++++++++++++++++++++",
"++++++++++++++++++++++++++++++++++++++++++++++++",
"++++++++++++++++++++++++++++++++++++++++++++++++",
"++++++++++++++++++++++++++++++++++++++++++++++++",
"++++++++++++++++++++++++++++++++++++++++++++++++",
"++++++++++++++++++++++++++++++++++++++++++++++++",
"++++++++++++++++++++++++++++++++++++++++++++++++",
"++++++++++++++++++++++++++++++++++++++++++++++++",
"++++++++++++++++++++++++++++++++++++++++++++++++",
"++++++++++++++++++++++++++++++++++++++++++++++++",
"++++++++++++++++++XXo+XXXX++X++oXX++++++++++++++",
"+++++++++++++++XXoooooXoXXooXXXoXXoo++++++++++++",
"++++++++++++++oXXoXooXXXoXooX..XXoOXXo++++++++++",
"+++++++++X++oOOoXXooXXXXoXXoX..XXXoXXo++++++++++",
"+++++++++.oOoooXXXXXX.XXX.XX..+.XXX.XooX++++++++",
"++++++++oooOoXX.Xo+++++++.XX+++++XXXXXXXX+++++++",
"+++++++XoooXXXX..X++++++++XX++++++XXXXXXXX++++++",
"++++++..XXXXX++++++++++++++++++++X..XXoXooo+++++",
"+++++XXXXX...++++++++++++++++++++++++++.XooXX+++",
"++++oooXXX+++++++++++++++++++++++++++++.XooXX+++",
"++++XXX.XXX+++++++++++++++++++++++++++++XoXXXX++",
"++++..XXXXX++++++++++++++++++++++++++++XXoXXXX++",
"++++XoooXX++++++++++++++++++++++++++++XXXoXXX.++",
"+++.XoooX+++++++++++++++++++++++++++++XXooXX.+++",
"+++..XooX++++++++++++++++++++++++++++++XooXX.+++",
"++++.XXXXX+++++++++++++X+++++++++++++++XoooX.+++",
"+++++XXXooX.+++++++++++++++++++++++++++XXXoXX+++",
"+++++XXoooXX+++++++++++++++++++++++++++XXX.X++++",
"+++++.XXXooXX+++++++++++++++++++++++++XoXX..++++",
"+++++..XXoOoXXXX++++++++++++++++++++ooXooX..++++",
"+++++...XXoXXXoo++++++++++++++++++++oooXXXX+++++",
"+++++++.XXXXXoooXXXXX++++++.XoXXooXXXooX..++++++",
"+++++++....XXoooXoooooXXX++ooooXooXooXXX.+++++++",
"++++++++  ..XXXXoOOoooXXXoooOOooOoXooX..++++++++",
"++++++++++  .X..oOooXooXXooooooooXXXX. +++++++++",
"++++++++++++ ....XoXXoOXXOooooXoXoX.. ++++++++++",
"++++++++++++++++..X.XooXooX..XXX.X.+++++++++++++",
"+++++++++++++++++...XXXXXoX...X. +++++++++++++++",
"++++++++++++++++++++..+XX..++++ ++++++++++++++++",
"++++++++++++++++++++++++++++++++++++++++++++++++",
"++++++++++++++++++++++++++++++++++++++++++++++++",
"++++++++++++++++++++++++++++++++++++++++++++++++",
"++++++++++++++++++++++++++++++++++++++++++++++++"
};
