/* XPM */
static char *result[] = {
/* columns rows colors chars-per-pixel */
"48 48 5 1 ",
"  c #CAB7AF",
". c #DCCBC3",
"X c #EEDFD7",
"o c #FFF3EB",
"O c None",
/* pixels */
"OOOOOOOOOOOOOOOOOOOOOOOOOOOOOOOOOOOOOOOOOOOOOOOO",
"OOOOOOOOOOOOOOOOOOOOOOOOOOOOOOOOOOOOOOOOOOOOOOOO",
"OOOOOOOOOOOOOOOOOOOOOOOOOOOOOOOOOOOOOOOOOOOOOOOO",
"OOOOOOOOOOOOOOOOOOOOOOOOOOOOOOOOOOOOOOOOOOOOOOOO",
"OOOOOOOOOOOOOOOOOOOOOOOOOOOOOOOOOOOOOOOOOOOOOOOO",
"OOOOOOOOOOOOOOOOOOOOOOOOOOOOOOOOOOOOOOOOOOOOOOOO",
"OOOOOOOOOOOOOOOOOOOOOOOOOOOOOOOOOOOOOOOOOOOOOOOO",
"OOOOOOOOOOOOOOOOOOOOOOOOOOOOOOOOOOOOOOOOOOOOOOOO",
"OOOOOOOOOOOOOOOOOOOOOOOOOOOOOOOOOOOOOOOOOOOOOOOO",
"OOOOOOOOOOOOOOOOOOOOOOOOOOOOOOOOOOOOOOOOOOOOOOOO",
"OOOOOOOOOOOOOOOOOOOOOOOOOOOOOOOOOOOOOOOOOOOOOOOO",
"OOOOOOOOOOOOOOOOOOOOOOOOOOOOOOOOOOOOOOOOOOOOOOOO",
"OOOOOOOOOOOOOOOOOOOOOOOOOOOOOOOOOOOOOOOOOOOOOOOO",
"OOOOOOOOOOOOOOOOOOOOOOOOOOOOOOOOOOOOOOOOOOOOOOOO",
"OOOOOOOOOOOOOOOOOOOXOOOOOOOOOOOOOOOOOOOOOOOOOOOO",
"OOOOOOOOOOOOOOOOXoX.XXX.XXOOOOOOOOOOOOOOOOOOOOOO",
"OOOOOOOOOOOOOOO..X. .X..X..OOOOOOOOOOOOOOOOOOOOO",
"OOOOOOOOOOOOOOO...  ...    OOOOOOO..XXOOOOOOOOOO",
"OOOOOOO. .OOOOOO..    OOO OOOOOOOO..X..XOOOOOOOO",
"OOOOOX....OOOOOOOOOOOOOOOOOOOOOOOO XX...OOOOOOOO",
"OOOO... .XOOOOOOOOOOOOOOOOOOOOOOOO.... OOOOOOOOO",
"OOO....OOOOOOOOOOOOOOOOOOOOOOOOOO..OOOOOOOXOOOOO",
"OOO..OOOOOOOOOOOOOOOOOOOOOOOOOOOOOOOOOOOOO.XXOOO",
"OO...OOOOOOOOOOOOOOOOOOOOOOOOOOOOOOOOOOOOO..X.OO",
"OO  .OOOOOOOOOOOOOOOOOOOOOOOOOOOOOOOOOOOO...X.OO",
"OO. .OOOOOOOOOOOOOOOOOOOOOOOOOOOOOOOOOOOO.....OO",
"OO..OOOOOOOOOOOOOOOOOOOOOOOOOOOOOOOOOOOOOO  ..OO",
"OOOOOOOOOOOOOOOOOOOOOOOOOOOOOOOOOOOOOOOOOO  .OOO",
"OOOOOOOOOOOOOOOOOOOOOOOOOOOOOOOOOOOOOOOOOOOOOOOO",
"OOOOOOOOOOOOOOOOOOOOOOOOOOOOOOOOOOOOOOOOOOOOOOOO",
"OOOOOOOOOOOOOOOOOOOOOOOOOOOOOOOOOOOOOOOOOOOOOOOO",
"OO.OOOOOOOOOOOOOOOOOOOOOOOOOOOOOOOOOOOOOOOOOOOOO",
"O.XXOOOOOOOOOOOOOOOOOOOOOOOOOOOOOOOOOOOOOOOOOOOO",
"O..XXOOOOOOOOOOOOOOOOOOOOOOOOOOOOOOOOOOOOOOOOOOO",
"O...XXXOOOOOOOOOOOOOOOOOOOOOOOOOOOOOOOOOOOOOOOOO",
"O...XXXXXOOOOOOOOOOOOOOOOOOOOOOOOOOOOOOOOOOOOOOO",
"OOO.XXX...OOOOOOOOOOOOOOOOOO.OOOOOO....X.OOOOOOO",
"OOO .XX.  .OOOOOOOOOOOOOOOOOX.OOOOO....X..OOOOOO",
"OOOOO..OOOOOOOOOOXOOOOO...XXXX..OOOO.  ..OOOOOOO",
"OOOOOOOOOOOOO.X...OOOOXX.X.XXoX..OOO.  OOOOOOOOO",
"OOOOOOOOOOOO..XX..OOO..X.XX.XoX..OOOOOOOOOOOOOOO",
"OOOOOOOOOOOO  . .OOOO. ...X..X..OOOOOOOOOOOOOOOO",
"OOOOOOOOOOOOOO  OOOOO.. ... ..  OOOOOOOOOOOOOOOO",
"OOOOOOOOOOOOOOOOOOOOOOO .O  .OOOOOOOOOOOOOOOOOOO",
"OOOOOOOOOOOOOOOOOOOOOOOOOOOOOOOOOOOOOOOOOOOOOOOO",
"OOOOOOOOOOOOOOOOOOOOOOOOOOOOOOOOOOOOOOOOOOOOOOOO",
"OOOOOOOOOOOOOOOOOOOOOOOOOOOOOOOOOOOOOOOOOOOOOOOO",
"OOOOOOOOOOOOOOOOOOOOOOOOOOOOOOOOOOOOOOOOOOOOOOOO"
};
