/* XPM */
static char *result[] = {
/* columns rows colors chars-per-pixel */
"48 48 6 1 ",
"  c #B9A39B",
". c #CAB7AF",
"X c #DCCBC3",
"o c #EEDFD7",
"O c #FFF3EB",
"+ c None",
/* pixels */
"++++++++++++++++++++++++++++++++++++++++++++++++",
"++++++++++++++++++++++++++++++++++++++++++++++++",
"++++++++++++++++++++++++++++++++++++++++++++++++",
"++++++++++++++++++++++++++++++++++++++++++++++++",
"++++++++++++++++++++++++++++++++++++++++++++++++",
"++++++++++++++++++++++++++++++++++++++++++++++++",
"++++++++++++++++++++++++++++++++++++++++++++++++",
"++++++++++++++++++++++++++++++++++++++++++++++++",
"++++++++++++++++++++++++++++++++++++++++++++++++",
"++++++++++++++++++++++++++++++++++++++++++++++++",
"++++++++++++++++++++++++++++++++++++++++++++++++",
"++++++++++++++++++++++++++++++++++++++++++++++++",
"++++++++++++++++++++++++++++++++++++++++++++++++",
"++++++++++++++++++++++++++++++++++++++++++++++++",
"++++++++++++++++++++++++++++++++++++++++++++++++",
"+++++++++++++++oO++++oo+++++++++++++++++++++++++",
"++++++++++++++XoOoXXXooOoXoXX+++++++++++++++++++",
"++++++++++++ooooOOooooOOOoXoooOOoo++++++++++++++",
"++++++++XXXXOOoooooXoooooooooOOOoXXX++++++++++++",
"+++++++ooooXOoooXooXooXXooXoooooooXoo+++++++++++",
"++++++XoooooooooXXXXXXXXoXXXoooXooooOo++++++++++",
"+++++XXoooooXXXXXX....XX...XXooXXoooOoo+++++++++",
"+++++XoooOOo.....+++....X...XX...ooooXXX++++++++",
"++++XooXoooX...++++++++++.+++++..XXX.XooX+++++++",
"+++XooXoXXX.++XX+++++++++++++++++XXX.XoooX++++++",
"+++XooooX..+++++++++++++++++++++++X..XoooX++++++",
"+++XooOoX.+++++++++++++++++++++++++..ooooXX+++++",
"++XXooOoX.++++++++++oo++++o++++++++.Xoooooo+++++",
"++XXXoooXX+++++++++XooX+++oo++++++++XoooooXX++++",
"+++XXooooo+++.+++++XXXX+++XX++++++++XooooXX+++++",
"+++.XXoooOoX.+++++++++++++X++++++++oooooo..+++++",
"++++.XXooooXX++++++++++++++++++++++ooooooX.+++++",
"+++...Xoooooo+Xo++++++++++++++++XXooooooX..+++++",
"++++..XXXooXXooooo+++++++++++.XoooOooooXX..+++++",
"+++++.XXXXXXXooOOoo+X++++++ooXooOooXXXXXX.++++++",
"+++++.XoXX..XooOOOoXXXoooooooooooooX.....+++++++",
"+++++++XX..XXXoooooXXooooooooooooooX..X.++++++++",
"++++++++..XX..XooooXXoooooooXooXXXX...++++++++++",
"+++++++++++. .XXXXXXXoooooooXXoXXoX.X+++++++++++",
"++++++++++++ ....XX.XoXXXXoX..XXXX..++++++++++++",
"++++++++++++++  ...XXXX..... ......+++++++++++++",
"+++++++++++++++++........ . ++++ +++++++++++++++",
"+++++++++++++++++++ ....++++++++++++++++++++++++",
"++++++++++++++++++++++++++++++++++++++++++++++++",
"++++++++++++++++++++++++++++++++++++++++++++++++",
"++++++++++++++++++++++++++++++++++++++++++++++++",
"++++++++++++++++++++++++++++++++++++++++++++++++",
"++++++++++++++++++++++++++++++++++++++++++++++++"
};
