/* XPM */
static char *_7a8b40a26354936e2c756672213ac81ReVhGgXhvSYOLQBC[] = {
/* columns rows colors chars-per-pixel */
"48 48 135 2 ",
"   c #3F4C2A",
".  c #3E532A",
"X  c #3D5A2B",
"o  c #3C612A",
"O  c #45552C",
"+  c #4C522C",
"@  c #445C2D",
"#  c #4B5D2E",
"$  c #52572F",
"%  c #515D2D",
"&  c #4D5D31",
"*  c #535D31",
"=  c #5B5D31",
"-  c #44632E",
";  c #4B632E",
":  c #466A2F",
">  c #4C6B2E",
",  c #52642F",
"<  c #5D662F",
"1  c #526C2F",
"2  c #5A6C2F",
"3  c #47712F",
"4  c #4D732F",
"5  c #54732F",
"6  c #5B742F",
"7  c #476430",
"8  c #4D6530",
"9  c #466A30",
"0  c #4D6B32",
"q  c #536432",
"w  c #5B6432",
"e  c #546C32",
"r  c #5B6C33",
"t  c #566C38",
"y  c #5D6D39",
"u  c #4D7232",
"i  c #4E7936",
"p  c #547333",
"a  c #5B7434",
"s  c #557B34",
"d  c #5C7B35",
"f  c #567438",
"g  c #5D7439",
"h  c #567C39",
"j  c #5C7C39",
"k  c #636534",
"l  c #636C35",
"z  c #6B6E35",
"x  c #636C38",
"c  c #6C6E39",
"v  c #776C37",
"b  c #637435",
"n  c #6A7436",
"m  c #637B36",
"M  c #6B7B36",
"N  c #637439",
"B  c #6B7539",
"V  c #647C3A",
"C  c #6B7C3A",
"Z  c #707436",
"A  c #787637",
"S  c #727936",
"D  c #73753A",
"F  c #797439",
"G  c #737C3B",
"H  c #7A7C3D",
"J  c #657F40",
"K  c #6C7E42",
"L  c #717F41",
"P  c #797F41",
"I  c #857E3E",
"U  c #837F41",
"Y  c #5B8236",
"T  c #5D8239",
"R  c #5F8A3B",
"E  c #638236",
"W  c #6C8237",
"Q  c #64833B",
"!  c #6C833C",
"~  c #668A3B",
"^  c #6C8A3D",
"/  c #778137",
"(  c #73833C",
")  c #7B843D",
"_  c #74893D",
"`  c #7C893E",
"'  c #6B913F",
"]  c #73923F",
"[  c #668440",
"{  c #6C8342",
"}  c #668B42",
"|  c #6B8B41",
" . c #738542",
".. c #7B8442",
"X. c #738B42",
"o. c #7B8C43",
"O. c #748149",
"+. c #788649",
"@. c #778B4A",
"#. c #7C8C49",
"$. c #6B9242",
"%. c #749345",
"&. c #7B9145",
"*. c #769449",
"=. c #7C924A",
"-. c #7E994B",
";. c #7E9950",
":. c #84843E",
">. c #838A3E",
",. c #838442",
"<. c #8B8140",
"1. c #838B44",
"2. c #898B43",
"3. c #838D4B",
"4. c #8B8B4C",
"5. c #998F4D",
"6. c #829144",
"7. c #889245",
"8. c #83934A",
"9. c #8C954B",
"0. c #849A4D",
"q. c #8C9A4D",
"w. c #929446",
"e. c #90954C",
"r. c #92994E",
"t. c #989B4F",
"y. c #888F51",
"u. c #839353",
"i. c #899552",
"p. c #859C51",
"a. c #8F9855",
"s. c #8A9A5C",
"d. c #949C54",
"f. c #8AA053",
"g. c #8FA15F",
/* pixels */
"m Q m C M b r C a p M B g Q K Q &.*._ ! &.&.j R T ~ ^ } | X._ p a X.2.H n b B V j s a d V d s 8 ",
"a 5 m N l l r ^ m b L F x x B M #.p.&.X. .V q p m Q X.V ~ {  .f h ! ( V a d Q j b r t g E Y h t ",
"d # , < C ..X.%.C ..,.B K L c M ( &.6.( H N d Q Q d Q =.| | ^ { V d d Y d T } g r a r a d a h e ",
"; @ p e w B  .^ N B L J w N x M m ! =.( ( ! ^ Q Q ~ $.-.{ g X.*.^ Q j j s p h e t e p e E V h : ",
"e a e b F x e m l # a { B b l ( ( ! X.( ( ( ..N j Q | { Y h T [ =._ ^ T T Q d p f : h g b Q d m ",
"M a s a n r r M c e r l C d G 8.6.o... .X.~ | =.8._ { ! Q ! T ' _ ] ^ Q ^ V B g ; 5 Q m e Y Q C ",
"=._ m M #.( S H  .^ r w V h V +.X.X. . .=.! =.-.-.*.{ J i T Q %.` ^ a a g N d C b C C a ! _ M o.",
"o.1.o.! =.6.7.( o. .V m O.{ N J ( =.0.o.=.+. .&.@.K O.| T T p R E a a e G d a > p y e q ( 6.X.| ",
"6.-.0.| o.o.8.X.| M m d K ! N M C o.0.0.q.+.V ! V t j j T i 9 t e r 2 k = e e a e x O. .%.0.Q M ",
"$.=.X.e  .;.f.%.s b  .G M b e b a M  .8.1.8.C b T e 0 ! T T T h Q m 0 e $ , e q r g V m E _ b < ",
"Q E ! l a j K  .S M ( H 6.a > a _ G H &.) ` o.m ! h j X.m j Q p s s m a p r r r q g y p m M S z ",
"] M Z S ! X.V o.1.` M ) X.p d m M G _ &.a Q +.C B y C ` m V | V ~ d 5 a d r w r y K C V C n M s ",
"^ C ) p Q 0.p.#.( q - a q O # d ( M g N p N { V ( M ~ %.o.Q Q V j s Y ; b N N a C C r 0 Q C b p ",
"^ ( z m [ X.8...V - X - - q a C >.` a p j a { ^ Q a ~ } | J N =.&._ Y s p d m d q 8 & e m l S &.",
"Q m H .. .;.d.3.8.y 0 p ; m m r M ( B p s V ^ ~ j X.%.~ Q d.3.-.X.E Y s 3 4 e V g M z a p % l C ",
"X.V ( ( M ! ..6.8.C p E p : d m s e l b Q d T ~ X.X.$.s ( 5.X.s e d Y s 5 d r m j m S e 0 > q e ",
"w Z ` _ W m / M n z a M d Y a > a 5 s Q | T ! X. .X.u.Q k G V f a a p 6 s b l V p s p ; q 8 & ; ",
"1 l n D o.! / G w b b G 6.a.( q a W m E Q Q =.;.| { ^ T ! C 1.B ! Q u 5 a a r Y p 1 5 @ q q q , ",
"n H b m X.b b ) ! ( | ( 6.0.1./ G ..r V Q V _ %.g V h h j d  .B o. .M , b Y M Q +.@.M b m b b M ",
"k C / b ! b k B 0.=.%.| ^ &.( 9.2.( r 0 p u Q E Q C g t s Y Q d o.:.n n b m M n y.#.` ( ! ! W l ",
"= c I n b b M  .&._ _ ~ ! m W &.m > p b a p 0 b V B N g g j T e X.( m ! E 6 5 6 a a C a D n W 1 ",
"l G n ! G B ! #.G Z / _ M 1 1 C &.p # r , 8 > 3 g L ! ! j ! ! Y X.m a d b b G 6 , b b a w w p > ",
"l M a b M / ` >.) n ) >.d d G ( M #.3.N 1 a E d m ,...o. .3.g.X.( M 6 m C a b A D D n Z B w ; 2 ",
"e C B G o.1.` H n G ` >.n C ` ( 1.X.#.( C r M  ...,.P w ! @.s._ E a a E # a C F r a e b C G b B ",
"b V o.1.2.G H  .2 1 m ..V ! S n C G o.&.( ( C 4.3.,.G 8 C J a ( Y 4 m p p 1 n D m m m ..(  .! b ",
"r d Q ( H B ( o.b b Q B b ^ b b 8.a.i.q.>.G G o.! H n z  .l e a b 2 b p a + l A M m G ..&.) m $ ",
"a a s n M l < z W M ( 2 n ` / / d.u.(  .6.) m G h T m H C b e s 6 2 2 a 2 w k < b b ( 6.9.` _  .",
"1.m s ^ ! V w l M 2 2 M ` ` >.>.,.C b b C A P c f T V H C e 5 _ m d 1 1 b l l % O.=.m ` ` ! ! V ",
"` m s Y a C M C ` / ( _ / ) ` / S ^ ( ( b = z ) n e e b k e m ~ 5 M e : ; , m l ! { p m Q G ! { ",
"M m m ~ m M ( ( ` :.t.7.` ` C a m B c C 6 % k F A r 6 d 6 l f - # a m d e 6 m e a V 1 M P k V T ",
"a b C G o.&.=.o.6.1.t.e.>._ ~ m d k = a > < G C ( m m C C C M r N q l d p d > - # q e r B G m r ",
"6 m ( C =.8._ G ` >.e.w.:.) _ &.H B l # 1 l n r 2 a b N D H G * G n r m , , 2 O O q , # l H B w ",
"m ! ( ! %.] Q ) :.:.,.7.9.` ) ! b V ( N B e B w q a C N k B N * w p e b n b m s > , 1 5 M M C m ",
"a m ( b E ^ _ Q M F I 9.` ( H k  ... .^ M l a n b m a e a b y = * g Y r b m m Y s u 5 b M e a a ",
"m b m Q ~ ' Q X. .....1.6.D 1.n ..o.6.M q w e p w N V j s C B l $ * a m 2 p ; a p p > m M q e a ",
"a a d ! ' R V e.1.C 3. .:.( ) :.o.q.2.(  .V a u t q Q ^ d V C { y l f > m l e a V E s M m n b V ",
"V d E ^ $.Y N ,. .{ C V 3.` _ ( ) 8.G M C G ( s Q { j C e q r | Q ( b # a % 1 s ~ V V 1 e 5 r N ",
"| ~ p E Q E p a h  .V a o.A ` M ! ..m ..3...( u T p N ! a f r a ^ ..C 8 a b m Q V C a d d s t r ",
"! Q r 1 1 2 a a d C ! Q ..H B n ( 8.I 2.@.N b d T f a d r r j m a V ( ( V 0 a r m N - p d d Q E ",
"Q m e a e < , > p d d r q V V M Y M U H ) b y N r 7 # e * y l B q e ! h a 0 p p a 0 - ; ; p j p ",
"h m b a r a e q a d j ! j 8 0 a T a H v H a t g y 0 w c w q x r 9 7  .K t V V w @ u - : p e p u ",
"- 8 e J j 8 g G Q ! |  . .B p p Y m o.) o.Y 7 0 f N x e 8 # # ; . & L V f j a m s - X - 9 e e p ",
": u T [  .t ; Q +.X. .V e a s 0 V Q !  .! s - 8 q N B y 8 0 u u @ O k m l e m B 4 o @ - @ @ 7 & ",
"3 h g ! V w , s m g V g p a d Q C ( ! | Q a N r j t w q t t 7 # q = l G z e s * @ o : 0 9 @ @ - ",
"j f K L [ B j j h [ j f u B Q V C G ^ ~ =.X.-.Q C r 8 r q ; q O p x C n # O , q 0 u 9 a p 7 X @ ",
"e J O.& g V f T j f t 7 7 J B ( ( W M E V N  .X.Q r y a e 1 > > m m C ( p O O # 9 - ; ; e 9 @ 7 ",
"e V N y V [ j V N t q w 8 r C C Q ( ( ^ d b ( _ d a m a e a p p M m a C e O @ 0 q & 0 0 8 - 7 7 ",
"r Q N C a s a V a r K x f e s V N ! | V b !  .( ^ V j b p p p g C Q j  .N d m d f r e N e a m y "
};
