/* XPM */
static char *result[] = {
/* columns rows colors chars-per-pixel */
"48 48 33 1 ",
"  c black",
". c #3B2331",
"X c #543640",
"o c #533F53",
"O c #6C494F",
"+ c #6E576A",
"@ c #8E5E4B",
"# c #835E5F",
"$ c #99726F",
"% c #997B7B",
"& c #ED6447",
"* c #AF867F",
"= c #F28559",
"- c #C3907A",
"; c #DC9773",
": c #F7A572",
"> c #956F82",
", c #A98F8B",
"< c #BA8799",
"1 c #B8A39B",
"2 c #C09B8F",
"3 c #D7AA91",
"4 c #EEB385",
"5 c #CAB7AF",
"6 c #D3A0B0",
"7 c #FBC58B",
"8 c #FBCB9C",
"9 c #EBC4A8",
"0 c #FFE5A3",
"q c #FDE3B2",
"w c #DCCBC3",
"e c #EEDFD7",
"r c None",
/* pixels */
"rrrrrrrrrrrrrrrrrrrrrrrrrrrrrrrrrrrrrrrrrrrrrrrr",
"rrrrrrrrrrrrrrrrrrrrrrrrrrrrrrrrrrrrrrrrrrrrrrrr",
"rrrrrrrrrrrrrrrrrrrrrrrrrrrrrrrrrrrrrrrrrrrrrrrr",
"rrrrrrrrrrrrrrrrrrrrrrrrrrrrrrrrrrrrrrrrrrrrrrrr",
"rrrrrrrrrrrrrrrrrrrrrrrrrrrrrrrrrrrrrrrrrrrrrrrr",
"rrrrrrrrrrrrrrrrrrrrrrrrrrrrrrrrrrrrrrrrrrrrrrrr",
"rrrrrrrrrrrrrrrrrrrrrrrrrrrrrrrrrrrrrrrrrrrrrrrr",
"rrrrrrrrrrrrrrrrrrrrrrrrrrrrrr*##*##$rrrrrrrrrrr",
"rrrrrrrrrrrrrrrrrrrrrrrrrrrr#%eee,ee1,$-rrrrrrrr",
"rrrrrrrrrrrrrrrrrrrrrrrrrrr%e%5e55,99,9e--rrrrrr",
"rrrrrrrrrrrrrrrrrrrrrrrrr$.ee5%#$#$*#$339-===rrr",
"rrrrrrrrrrrrrrrrrrrrrrrr$w+,5,.rrrrrr@@33:::===r",
"rrrrrrrrrrrrrrrrrrrrrrrroww++X2.rrrrrrr@@:00:&&&",
"rrrrrrrrrrrrrrrrrrrXXXXX>oww22#.rrrrrrrrr=700=rr",
"rrrrrrrrrrrrrrrrXXX+++++6>o...o.rrrrrrrrrr=:77=r",
"rrrrrrrrrrrrrrXX++66>>>+o66>>o...rrrrrrrrrr&&===",
"rrrrrrrrrrrrOO>>>>66+++++oXXX...XX.rrrrrrrrrr&&&",
"rrrrrrrrrrrO><66>>>+++++++ooXXXXo++orrrrrrrrrrrr",
"rrrrrrrrrrO>6666>+++++++++++++++>>>>orrrrrrrrrrr",
"rrrrrrrrrO<6666>>+++ooooooooo+++++>66orrrrrrrrrr",
"rrrrrrrrO>6666>>++oooooooooooooo+++>66.rrrrrrrrr",
"rrrrrrrrO>66<>>+oooooooooooooooooo++>6Xrrrrrrrrr",
"rrrrrrrO>>>>>>+oooooooooooooooooooo++66.rrrrrrrr",
"rrrrrrrO+>>>++ooooooooooooooooooooo+++6Xrrrrrrrr",
"rrrrrrX+++++oooooooooooooooooooooooo++>>.rrrrrrr",
"rrrrrrX++oooooooo.........Xooooooooo+++6Xrrrrrrr",
"rrrrr.+>ooXXXXXXXXXXXXXXXXXXXXXoooooo++6> rrrrrr",
"rrrrr.+>oX1%XXXXXXXXXXXXXXXXXXX..ooooo+>> rrrrrr",
"rrrrrX++XX..XXXXXXXXXXXXXXXXXXXX...ooo+>> rrrrrr",
"rrrrrX++XX1%XXXXXXXXXXXXXXXXXXXX....oo++> rrrrrr",
"rrrrrX+6<XXXXXXXXXXXXXXXXXXXXXXXX....o.+> rrrrrr",
"rrrrrX+X+XXXXXXXXXXXXX%q%XXXXXXXX....o.+> rrrrrr",
"rrrrrXoXXXXXXX8+XXXXXX...XXXXXXXX....o.+> rrrrrr",
"rrrrr.ooXXXXX;#8+XXXXX%q%XXXXXXXX....o.>+ rrrrrr",
"rrrrr.o+.XXXXXX#4XXXXXXXXXXXXXXXX....o+>.rrrrrrr",
"rrrrrrX+.XXXXXXXXXXXXXXXXXXXXXXXX....o+6 rrrrrrr",
"rrrrrr.o+.XXXXXXXXXXXX+66>XXXXXXX...oo6Orrrrrrrr",
"rrrrrrr.+X.XXXXXXXXXXXX++++XXXXX....+66Xrrrrrrrr",
"rrrrrrrr.++XXXXXXXXXXXXXXXXXXXXX...+66Xrrrrrrrrr",
"rrrrrrrrr.++..XXXXXXXXXXXXXXXX...+66>Xrrrrrrrrrr",
"rrrrrrrrrr..XXXX......XXX.......>66XXrrrrrrrrrrr",
"rrrrrrrrrrrr..XXX...........++>>>>Xrrrrrrrrrrrrr",
"rrrrrrrrrrrrrr........ooo>>6666XXXrrrrrrrrrrrrrr",
"rrrrrrrrrrrrrrrrrXX.      .... rrrrrrrrrrrrrrrrr",
"rrrrrrrrrrrrrrrrrrrrrrrrrrrrrrrrrrrrrrrrrrrrrrrr",
"rrrrrrrrrrrrrrrrrrrrrrrrrrrrrrrrrrrrrrrrrrrrrrrr",
"rrrrrrrrrrrrrrrrrrrrrrrrrrrrrrrrrrrrrrrrrrrrrrrr",
"rrrrrrrrrrrrrrrrrrrrrrrrrrrrrrrrrrrrrrrrrrrrrrrr"
};
