/* XPM */
static char *result[] = {
/* columns rows colors chars-per-pixel */
"48 48 37 1 ",
"  c black",
". c #3B2331",
"X c #543640",
"o c #533F53",
"O c #6C494F",
"+ c #6E576A",
"@ c #8E5E4B",
"# c #92514E",
"$ c #835E5F",
"% c #89676B",
"& c #99726F",
"* c #997B7B",
"= c #ED6447",
"- c #C57A60",
"; c #AF867F",
": c #F28559",
"> c #C3907A",
", c #DC9773",
"< c #F7A572",
"1 c #956F82",
"2 c #A98F8B",
"3 c #BA8799",
"4 c #B8A39B",
"5 c #C09B8F",
"6 c #D7AA91",
"7 c #EEB385",
"8 c #CAB7AF",
"9 c #D3A0B0",
"0 c #FFC08C",
"q c #FBCB9C",
"w c #EBC4A8",
"e c #FFE5A3",
"r c #FDE3B2",
"t c #DCCBC3",
"y c #EEDFD7",
"u c #FFFFC0",
"i c None",
/* pixels */
"iiiiiiiiiiiiiiiiiiiiiiiiiiiiiiiiiiiiiiiiiiiiiiii",
"iiiiiiiiiiiiiiiiiiiiiiiiiiiiiiiiiiiiiiiiiiiiiiii",
"iiiiiiiiiiiiiiiiiiiiiiiiiiiiiiiiiiiiiiiiiiiiiiii",
"iiiiiiiiiiiiiiiiiiiiiiiiiiiiiiiiiiiiiiiiiiiiiiii",
"iiiiiiiiiiiiiiiiiiiiiiiiiiiiiiiiiiiiiiiiiiiiiiii",
"iiiiiiiiiiiiiiiiiiiiiiiiiiiiiiiiiiiiiiiiiiiiiiii",
"iiiiiiiiiiiiiiiiiiiiiiiiiiiiii;$$2yy42&>iiiiiiii",
"iiiiiiiiiiiiiiiiiiiiiiiiiiii$*yyy22ww2wy>>::::ii",
"iiiiiiiiiiiiiiiiiiiiiiiiiii*y*8y88&;$&66w<00<===",
"iiiiiiiiiiiiiiiiiiiiiiiiii+yy8*$&$iii@@66<uue:ii",
"iiiiiiiiiiiiiiiiiiiiiiiii&.y82$$iiiiiii@@:euue:i",
"iiiiiiiiiiiiiiiiiiiiiiii&t+*82.iiiiiiiiiii:<eu0:",
"iiiiiiiiiiiiiiiiiiiiiiiiott++X5.iiiiiiiiiii:=<<<",
"iiiiiiiiiiiiiiiiiiiXXXXX1ott55$.iiiiiiiiiiiii===",
"iiiiiiiiiiiiiiiiXXX+++++91o...o.iiiiiiiiiiiiiiii",
"iiiiiiiiiiiiiiXX39933111o9911o...Xiiiiiiiiiiiiii",
"iiiiiiiiiiiiOO13199++++++oXXX...XXX.iiiiiiiiiiii",
"iiiiiiiiiiO139911+++++++++ooXXXXo+++oiiiiiiiiiii",
"iiiiiiiiiO199991++++ooooooooo+++11999oiiiiiiiiii",
"iiiiiiiiO3999931++oooooooooooooo+++199.iiiiiiiii",
"iiiiiiiO1999931+oooooooooooooooooo++199Xiiiiiiii",
"iiiiiiO+913331+oooooooooooooooooooo++199.iiiiiii",
"iiiiiiO11111+ooooooooooooooooooooooo+++9Xiiiiiii",
"iiiiiX+1++ooooooooooooooooooooooooooo++19.iiiiii",
"iiiiiX++oooooooo............ooooooooo+++9Xiiiiii",
"iiii.+1oo2r*X...XXXXXXXXXXXXXXX..ooooo++9X iiiii",
"iiii.+1oXr.rXXXXXXXXXXXXXXXXXXXX...oooo+11 iiiii",
"iiiiX++XXr.rXXXXXXXXXXXXXXXXXXXXX....oo+11 iiiii",
"iiiiX+oXX2r*XXXXXXXXXXXXXXXXXXXXX.....o++1 iiiii",
"iiiiX+93XXXXXXq+XXXXXX*rr%XXXXXXXX....oo+1 iiiii",
"iiiiX+X++XXXX,.q+XXXXXr..rXXXXXXXX.....o+1 iiiii",
"iiiiXoXXXXXXX# .7XXXXXr..rXXXXXXXX.....o+1 iiiii",
"iiii.ooXXXXXX#  #XXXXX*rr%XXXXXXXX.....o1X iiiii",
"iiii.o+.XXXXXX--XXXXXXXXXXXXXXXXXX.....+1Xiiiiii",
"iiiiiX+.XXXXXXXXXXXXXXXXXXXXXXXXXX.....+9 iiiiii",
"iiiii.X+.XXXXXXXXXXXXXX+991XXXXXXX....o9Oiiiiiii",
"iiiiii.+X.XXXXXXXXXXXXXX++++XXXX.....+99Xiiiiiii",
"iiiiiii.XXXXXXXXXXXXXXXXXXXXXXXX....+99Xiiiiiiii",
"iiiiiiii..++..XXXXXXXXXXXXXXXX....+991Xiiiiiiiii",
"iiiiiiiii....XXXXXXXXXXXX......11199XXiiiiiiiiii",
"iiiiiiiiiiii.......XXXX++++11111++XXiiiiiiiiiiii",
"iiiiiiiiiiiiiii..       .....   iiiiiiiiiiiiiiii",
"iiiiiiiiiiiiiiiiiiiiiiiiiiiiiiiiiiiiiiiiiiiiiiii",
"iiiiiiiiiiiiiiiiiiiiiiiiiiiiiiiiiiiiiiiiiiiiiiii",
"iiiiiiiiiiiiiiiiiiiiiiiiiiiiiiiiiiiiiiiiiiiiiiii",
"iiiiiiiiiiiiiiiiiiiiiiiiiiiiiiiiiiiiiiiiiiiiiiii",
"iiiiiiiiiiiiiiiiiiiiiiiiiiiiiiiiiiiiiiiiiiiiiiii",
"iiiiiiiiiiiiiiiiiiiiiiiiiiiiiiiiiiiiiiiiiiiiiiii"
};
