/* XPM */
static char *result[] = {
/* columns rows colors chars-per-pixel */
"48 48 37 1 ",
"  c black",
". c #3B2331",
"X c #543640",
"o c #533F53",
"O c #6C494F",
"+ c #6E576A",
"@ c #8E5E4B",
"# c #92514E",
"$ c #835E5F",
"% c #89676B",
"& c #99726F",
"* c #997B7B",
"= c #ED6447",
"- c #C57A60",
"; c #AF867F",
": c #F28559",
"> c #C3907A",
", c #DC9773",
"< c #F7A572",
"1 c #956F82",
"2 c #A98F8B",
"3 c #BA8799",
"4 c #B8A39B",
"5 c #C09B8F",
"6 c #D7AA91",
"7 c #EEB385",
"8 c #CAB7AF",
"9 c #D3A0B0",
"0 c #FFC08C",
"q c #FBCB9C",
"w c #EBC4A8",
"e c #FFE5A3",
"r c #FDE3B2",
"t c #DCCBC3",
"y c #EEDFD7",
"u c #FFFFC0",
"i c None",
/* pixels */
"iiiiiiiiiiiiiiiiiiiiiiiiiiiiiiiiiiiiiiiiiiiiiiii",
"iiiiiiiiiiiiiiiiiiiiiiiiiiiiiiiiiiiiiiiiiiiiiiii",
"iiiiiiiiiiiiiiiiiiiiiiiiiiiiiiiiiiiiiiiiiiiiiiii",
"iiiiiiiiiiiiiiiiiiiiiiiiiiiiiiiiiiiiiiiiiiiiiiii",
"iiiiiiiiiiiiiiiiiiiiiiiiiiiiiiiiiiiiiiiiiiiiiiii",
"iiiiiiiiiiiiiiiiiiiiiiiiiiiiiiiiiiiiiiiiiiiiiiii",
"iiiiiiiiiiiiiiiiiiiiiiiiiiiiiiiiiiiiiiiiiiii:==i",
"iiiiiiiiiiiiiiiiiiiiiiiiiiiiiiiii;$$&2&>ii::=:ii",
"iiiiiiiiiiiiiiiiiiiiiiiiiiiiii;$$2yy42wy>:00<<<<",
"iiiiiiiiiiiiiiiiiiiiiiiiiiii$*yyy24ww&66w<euuee<",
"iiiiiiiiiiiiiiiiiiiiiiiiiii*y*8y88&$$@@6w<0uue:=",
"iiiiiiiiiiiiiiiiiiiiiiiiii+yy8*$&$iiiii@@::::=ii",
"iiiiiiiiiiiiiiiiiiiiiiiii&.y82$$iiiiiiiiiiiiiiii",
"iiiiiiiiiiiiiiiiiiiiiiii&t+282.iiiiiiiiiiiiiiiii",
"iiiiiiiiiiiiiiiiiiiiiiiiott++X5.iiiiiiiiiiiiiiii",
"iiiiiiiiiiiiiiiiiiXXXX..1ott55$.iiiiiiiiiiiiiiii",
"iiiiiiiiiiiiiiXXXX++++++91o...o..iiiiiiiiiiiiiii",
"iiiiiiiiiiiiOO+13993311+o9911o...X.iiiiiiiiiiiii",
"iiiiiiiiiiOO3993199++++++oXXX...X+++Xiiiiiiiiiii",
"iiiiiiiiOO999991++++oooo++ooXXXX+1199XXiiiiiiiii",
"iiiiiiiO39999931++oooooooooooooo+++1199.iiiiiiii",
"iiiiiiO19999991+ooooooooooooooooooo++111.iiiiiii",
"iiiiiO19199931+ooooooooooooooooooooo++191.iiiiii",
"iiiiiO911111+oooooooooooooooooooooooo+++9.iiiiii",
"iiiiX11++ooooooooooooooooooooooooooooo++11.iiiii",
"iiiiX1+ooooooooo.............ooooooooo+++9Xiiiii",
"iii.91oo2r*XX...XXXXXXXXXXXXXXXX..ooooo++9X.iiii",
"iii.91oXr.rXXXXXXXXXXXXXXXXXXXXXX...oooo+11.iiii",
"iiiX1+XXr.rXXXXXXXXXXXXXXXXXXXXXXX....oo+11 iiii",
"iiiX+oXX2r*XXXXXXXXXXXXXXXXXXXXXXX.....o++1 iiii",
"iiiX+93XXXXXXXq+XXXXXXX*rr%XXXXXXXX....oo+1 iiii",
"iiiX+X++XXXXX,.q+XXXXXXr..rXXXXXXXX.....o+1 iiii",
"iiiXoXXXXXXXX# .7XXXXXXr..rXXXXXXXX.....o+1 iiii",
"iii.ooXXXXXXXX--#XXXXXX*rr%XXXXXXXX.....o1X iiii",
"iii.o+.XXXXXXXXXXXXXXXXXXXXXXXXXXXX.....+1Xiiiii",
"iiii.+..XXXXXXXXXXXXXXXXXXXXXXXXXXX.....+9 iiiii",
"iiii.X+..XXXXXXXXXXXXXXX+991XXXXXXX....o9Oiiiiii",
"iiiii.X....XXXXXXXXXXXXXX++++XXXX.....+99Xiiiiii",
"iiiiii.XXXXXXXXXXXXXXXXXXXXXXXXXX....+99Xiiiiiii",
"iiiiiii.+++...XXXXXXXXXXXXXXXXX....+999Xiiiiiiii",
"iiiiiiii..XXXXXX....XXXXXX.....++1199XXiiiiiiiii",
"iiiiiiiiii...XXXXXXXX+++++++11111+XXXiiiiiiiiiii",
"iiiiiiiiiiiiii..       ......   iiiiiiiiiiiiiiii",
"iiiiiiiiiiiiiiiiiiiiiiiiiiiiiiiiiiiiiiiiiiiiiiii",
"iiiiiiiiiiiiiiiiiiiiiiiiiiiiiiiiiiiiiiiiiiiiiiii",
"iiiiiiiiiiiiiiiiiiiiiiiiiiiiiiiiiiiiiiiiiiiiiiii",
"iiiiiiiiiiiiiiiiiiiiiiiiiiiiiiiiiiiiiiiiiiiiiiii",
"iiiiiiiiiiiiiiiiiiiiiiiiiiiiiiiiiiiiiiiiiiiiiiii"
};
