/* XPM */
static char *result[] = {
/* columns rows colors chars-per-pixel */
"48 48 35 1 ",
"  c black",
". c #3B2331",
"X c #543640",
"o c #533F53",
"O c #6C494F",
"+ c #6E576A",
"@ c #8E5E4B",
"# c #835E5F",
"$ c #99726F",
"% c #997B7B",
"& c #ED6447",
"* c #AF867F",
"= c #F28559",
"- c #C3907A",
"; c #DC9773",
": c #F7A572",
"> c #956F82",
", c #A98F8B",
"< c #BA8799",
"1 c #B8A39B",
"2 c #C09B8F",
"3 c #D7AA91",
"4 c #EEB385",
"5 c #CAB7AF",
"6 c #D3A0B0",
"7 c #FBC58B",
"8 c #FFC08C",
"9 c #FBCB9C",
"0 c #EBC4A8",
"q c #FFE5A3",
"w c #FDE3B2",
"e c #DCCBC3",
"r c #EEDFD7",
"t c #FFFFC0",
"y c None",
/* pixels */
"yyyyyyyyyyyyyyyyyyyyyyyyyyyyyyyyyyyyyyyyyyyyyyyy",
"yyyyyyyyyyyyyyyyyyyyyyyyyyyyyyyyyyyyyyyyyyyyyyyy",
"yyyyyyyyyyyyyyyyyyyyyyyyyyyyyyyyyyyyyyyyyyyyyyyy",
"yyyyyyyyyyyyyyyyyyyyyyyyyyyyyyyyyyyyyyyyyyyyyyyy",
"yyyyyyyyyyyyyyyyyyyyyyyyyyyyyyyyyyyyyyyyyyyyyyyy",
"yyyyyyyyyyyyyyyyyyyyyyyyyyyyyyyyyyyyyyyyyyyyyyyy",
"yyyyyyyyyyyyyyyyyyyyyyyyyyyyyyyyyyyyyyyyyyyyyyyy",
"yyyyyyyyyyyyyyyyyyyyyyyyyyyyyyyyyyyyyyyyyyyyyyyy",
"yyyyyyyyyyyyyyyyyyyyyyyyyyyyy*##*##$yyyyyyyyyyyy",
"yyyyyyyyyyyyyyyyyyyyyyyyyyy#%rrr,rr1,$-yyyy=&&yy",
"yyyyyyyyyyyyyyyyyyyyyyyyyy%r%5r55$00,0r--==&=yyy",
"yyyyyyyyyyyyyyyyyyyyyyyy$.rr5%#$#$##$330:888==yy",
"yyyyyyyyyyyyyyyyyyyyyyy$e+,5,.yyyyyy@@33:7ttq8::",
"yyyyyyyyyyyyyyyyyyyyyyyoee++X2.yyyyyyy@@=:7ttq7&",
"yyyyyyyyyyyyyyyyyyXXXXX>oee22#.yyyyyyyyyy===&&&y",
"yyyyyyyyyyyyyyyXXX+++++6>o...o.yyyyyyyyyyyyyyyyy",
"yyyyyyyyyyyyyXX+<66<<>>o66>>o...Xyyyyyyyyyyyyyyy",
"yyyyyyyyyyyOO><>>66+++++oXXX...XXX.yyyyyyyyyyyyy",
"yyyyyyyyyO><66>>+++++++++ooXXXXo+++oyyyyyyyyyyyy",
"yyyyyyyyO>6666>++++ooooooooo+++>>666oyyyyyyyyyyy",
"yyyyyyyO<6666<>++oooooooooooooo+++>66.yyyyyyyyyy",
"yyyyyyO>6666<>+oooooooooooooooooo++>66Xyyyyyyyyy",
"yyyyyO+6><<<>+oooooooooooooooooooo++>66.yyyyyyyy",
"yyyyyO>>>>>+ooooooooooooooooooooooo+++6Xyyyyyyyy",
"yyyyX+>++ooooooooooooooooooooooooooo++>6.yyyyyyy",
"yyyyX++oooooooo............ooooooooo+++6Xyyyyyyy",
"yyy.+>ooXXXX...XXXXXXXXXXXXXXX..ooooo++6X.yyyyyy",
"yyy.+>oX1%XXXXXXXXXXXXXXXXXXXXX...oooo+>>.yyyyyy",
"yyyX++XX..XXXXXXXXXXXXXXXXXXXXXX....oo+>> yyyyyy",
"yyyX+oXX1%XXXXXXXXXXXXXXXXXXXXXX.....o++> yyyyyy",
"yyyX+6<XXXXXXXXXXXXXXXXXXXXXXXXXX....oo+> yyyyyy",
"yyyX+X++XXXXXXXXXXXXXX%w%XXXXXXXX.....o+> yyyyyy",
"yyyXoXXXXXXXX9+XXXXXXX...XXXXXXXX.....o+> yyyyyy",
"yyy.ooXXXXXX;#9+XXXXXX%w%XXXXXXXX.....o>X yyyyyy",
"yyy.o+.XXXXXXX#4XXXXXXXXXXXXXXXXX.....+>Xyyyyyyy",
"yyyyX+.XXXXXXXXXXXXXXXXXXXXXXXXXX.....+6 yyyyyyy",
"yyyy.X+.XXXXXXXXXXXXXX+66>XXXXXXX....o6Oyyyyyyyy",
"yyyyy.+X.XXXXXXXXXXXXXX++++XXXX.....+66Xyyyyyyyy",
"yyyyyy.+XXXXXXXXXXXXXXXXXXXXXXX....+66Xyyyyyyyyy",
"yyyyyyy..++..XXXXXXXXXXXXXXXX....+66>Xyyyyyyyyyy",
"yyyyyyyy....XXXXXXXXXXXX......>>>66XXyyyyyyyyyyy",
"yyyyyyyyyy........XXXX++++>>>>>++XXyyyyyyyyyyyyy",
"yyyyyyyyyyyyyy....      ...   .yyyyyyyyyyyyyyyyy",
"yyyyyyyyyyyyyyyyyyyyyyyyyyyyyyyyyyyyyyyyyyyyyyyy",
"yyyyyyyyyyyyyyyyyyyyyyyyyyyyyyyyyyyyyyyyyyyyyyyy",
"yyyyyyyyyyyyyyyyyyyyyyyyyyyyyyyyyyyyyyyyyyyyyyyy",
"yyyyyyyyyyyyyyyyyyyyyyyyyyyyyyyyyyyyyyyyyyyyyyyy",
"yyyyyyyyyyyyyyyyyyyyyyyyyyyyyyyyyyyyyyyyyyyyyyyy"
};
