/* XPM */
static char *_251b99be3c04199cecb8a27ea846f46g9zESeE8xCaxV3zU[] = {
/* columns rows colors chars-per-pixel */
"48 48 6 1 ",
"  c None",
". c #81211E",
"X c #9B4E3D",
"o c #B47A5B",
"O c #CDA779",
"+ c #E6D397",
/* pixels */
"                                                ",
"                                                ",
"                                                ",
"                                                ",
"                                                ",
"                                                ",
"                                                ",
"                                                ",
"                                                ",
"                            X                   ",
"                            XX                  ",
"                           XXoX                 ",
"                           Xoo+X                ",
"                           oo++++               ",
"                           ooo++++              ",
"                         ..oOOo++++             ",
"                         .XoOOOOo+++o           ",
"                        .XXooOOOOO++++o         ",
"                  X    .X  XXXOOOOOooo+++++..   ",
"                 Xo    X      oooOOOooooXXX     ",
"                OooX  XX         ooooXXX        ",
"               ++oooX X                         ",
"              ++++ooXX.                         ",
"             ++++ooX...                         ",
"            ++++oOOOOO..                        ",
"           +++ooOOOOOOo.                        ",
"          +++OOOOOOOOOoo.                       ",
"          ++OOOOOOoXXOOo.                       ",
"         ++OOOOOoo   XXo.                       ",
"         ++OOOoo       XX                       ",
"        ++oOOo          X                       ",
"        +oOOo           XX                      ",
"        +oOo            XX                      ",
"       ++oX             XX                      ",
"       +oX             XX                       ",
"       +X              XX                       ",
"       X.              XX                       ",
"       X               XX                       ",
"       .               X                        ",
"                       X                        ",
"                      OX                        ",
"                                                ",
"                                                ",
"                                                ",
"                                                ",
"                                                ",
"                                                ",
"                                                "
};
