/* XPM */
static char *_7e21f6096814bdadc2650018a5982ffj4WMrrnehyg0i6ND[] = {
/* columns rows colors chars-per-pixel */
"48 48 6 1 ",
"  c None",
". c #81211E",
"X c #9B4E3D",
"o c #B47A5B",
"O c #CDA779",
"+ c #E6D397",
/* pixels */
"                                                ",
"                                                ",
"                                                ",
"                                                ",
"                                                ",
"                                                ",
"                                                ",
"                                                ",
"                                                ",
"                             X                  ",
"                             XX                 ",
"                            XooX                ",
"                           Xoo+oX               ",
"                           oo++++X              ",
"                          oooo++++              ",
"                         .XOOOo++++             ",
"                         .XOOOOo++++o           ",
"                   XXX  .XXoOOOOOO+++oo         ",
"                  XXX  .X  XXXOOOOOo+++o        ",
"                 o++X  X      ooOOOOoo+++o      ",
"                O+++o XX        ooOOOooo++...   ",
"               O++++o X            ooXXXXXX     ",
"              O++++oO.X                         ",
"             O++++oOOO..                        ",
"             ++++oOOOOo.                        ",
"            +++++oOOOOOo.                       ",
"           +++++oOOOOOOo.                       ",
"          ++++++OOOOOOOoX.                      ",
"         ++++++OOOOOXXXoX.                      ",
"        +++++oOOOOOX   XXX                      ",
"     ++++++ooOOOOXX    XXX                      ",
"   ++++++ooOOOOoX      XoX                      ",
"      +ooOOOOoo         oX                      ",
"       XXXXXX           oX                      ",
"                        oX                      ",
"                        oX                      ",
"                        oo                      ",
"                        Xo                      ",
"                        X                       ",
"                       XX                       ",
"                      OX                        ",
"                                                ",
"                                                ",
"                                                ",
"                                                ",
"                                                ",
"                                                ",
"                                                "
};
