/* XPM */
static char *_eaac7dc25c64a1d8e48108ca5c74b3bVYoAQuzk7LOYWicy[] = {
/* columns rows colors chars-per-pixel */
"48 48 6 1 ",
"  c None",
". c #81211E",
"X c #9B4E3D",
"o c #B47A5B",
"O c #CDA779",
"+ c #E6D397",
/* pixels */
"                                                ",
"                                                ",
"                                                ",
"                                                ",
"                                                ",
"                                                ",
"                                                ",
"                                                ",
"                                                ",
"                                                ",
"                                                ",
"                                                ",
"                              OX                ",
"                             O++X               ",
"                           oO++++X              ",
"                          oo++++++X             ",
"                         .Xooo++++X             ",
"                   XX    .XoOOo++++O            ",
"                  oX    .XXoOOOo+++O            ",
"                 oXX    X  XoOOOo+++OO          ",
"                O+oX   XX   XoOOOOO+++OX        ",
"               O+++o   X      ooOOOOo+++XX      ",
"              O++++oo  X        oooOOoo+++X     ",
"              O+++oOO. .           ooXXXX...    ",
"             O++++oOOO..                        ",
"             O+++oOOOOo.                        ",
"             o+++oOOOOOo.                       ",
"            O++++oOOOOOo.                       ",
"            +++++OOOOOooX.                      ",
"           +++++OOOOOoooX.                      ",
"          +++++OOOOXX  XXXX                     ",
"          +++oOOOOX    XX X                     ",
"         +++oOOOXX     X  o                     ",
"    ++++++ooOOOo       X  o                     ",
"     XooooOOOoo        O  O                     ",
"      XXXXXXX          +  O                     ",
"                       +  O                     ",
"                       O oo                     ",
"                       X o                      ",
"                       XXo                      ",
"                      OXX                       ",
"                      OX                        ",
"                                                ",
"                                                ",
"                                                ",
"                                                ",
"                                                ",
"                                                "
};
