/* XPM */
static char *_48c048c619e4c14d7a1406fc6fd0560OAsb8pzFTVEgwMJ5[] = {
/* columns rows colors chars-per-pixel */
"48 48 6 1 ",
"  c None",
". c #81211E",
"X c #9B4E3D",
"o c #B47A5B",
"O c #CDA779",
"+ c #E6D397",
/* pixels */
"                                                ",
"                                                ",
"                                                ",
"                                                ",
"                                                ",
"                                                ",
"                                                ",
"                                                ",
"                                                ",
"                                                ",
"                                                ",
"                              OX                ",
"                             OO+X               ",
"                           OO++++X              ",
"                          oOO+++++X             ",
"                         .OOo+++++X             ",
"                  X      .oooo++++O             ",
"                 oX     .Xooooo++++O            ",
"                O+X     XX ooOOo+++O            ",
"               O++oX    X   oOOOO+++O           ",
"               O+++o   XX   oOOOOO+++O          ",
"              O++++oo  X     oOOOOo+++X         ",
"              O++++oO. .      oOOOOo++OX        ",
"              O++++oOO..        ooOOo++X        ",
"               +++oOOOo.          oooo+X        ",
"                ++oOOOOo.            ooX        ",
"                ++oOOOOo.             o.        ",
"                +OOOOOOoX.             .        ",
"            + +++OOOOOOo .             .        ",
"           O++++OOOOOoo  XX                     ",
"           O+++OOOOOoXX   X                     ",
"           +++OOOOOo  X   Xo                    ",
"         OO++oOOOOX   X    o                    ",
"        ++++oOOOOX    O    o                    ",
"     +++++ooOOOoX     +    O                    ",
"      XXooooXXX       +    O                    ",
"        XXXX          +    O                    ",
"                      OX  O                     ",
"                      OXXoo                     ",
"                      OXX                       ",
"                      OX                        ",
"                                                ",
"                                                ",
"                                                ",
"                                                ",
"                                                ",
"                                                ",
"                                                "
};
