/* XPM */
static char *result[] = {
/* columns rows colors chars-per-pixel */
"48 48 9 1 ",
"  c #B55758",
". c #CC6666",
"X c #E87D7D",
"o c #FA978E",
"O c #FCB0A9",
"+ c #FFCCCC",
"@ c #FFF5CF",
"# c white",
"$ c None",
/* pixels */
"$$$$$$$$$$$$$$$$$$$$$$$$$$$$$$$$$$$$$$$$$$$$$$$$",
"$$$$$$$$$$$$$$$$$$$$$$$$$$$$$$$$$$$$$$$$$$$$$$$$",
"$$$$$$$$$$$$$$$$$$$$$$$$$$$$$$$$$$$$$$$$$$$$$$$$",
"$$$$$$$$$$$$$$$$$$$$$$$$$$$$$$$$$$$$$$$$$$$$$$$$",
"$$$$$$$$$$$$$$$$$$$$$$$$$$$$$$$$$$$$$$$$$$$$$$$$",
"$$$$$$$$$$$$$$$$$$$$$$$$$$$$$$$$$$$$$$$$$$$$$$$$",
"$$$$$$$$$$$$$$$$$$$$$$$$$$$$$$$$$$$$$$$$$$$$$$$$",
"$$$$$$$$$$$$$$$$$$$$$$$$$$$$$$$$$$$$$$$$$$$$$$$$",
"$$$$$$$$$$$$$$$$$$$$$$$$$$$$$$$$$$$$$$$$$$$$$$$$",
"$$$$$$$$$$$$$$$$$$$$$$$$$$$$$$$$$$$$$$$$$$$$$$$$",
"$$$$$$$$$$$$$$$$$$$$$$$$$$$$$$$$$$$$X.X$$$$$$$$$",
"$$$$$$$$$$$$$$$$$$$$$$$$$$$$$$$$$$$X#@O $$$$$$$$",
"$$$$$$$$$$$$$$$$$$$$$$$$$$$$$$$$$$$.@@@ $$$$$$$$",
"$$$$$$$$$$$$$$$$$$$$$$$$$$$$$$$$$$$ o## $$$$$$$$",
"$$$$$$$$$$$$$$$$$$$$$$  XXXX $$$$$$$.o $$$$$$$$$",
"$$$$$$$$$$$$$$$$$$   XXOOOOOOXXX$$$$$$$$$$$$$$$$",
"$$$$$$$$$$$$$$$  XOOO@@@@OO@@@@+oo$$$$$$$$$$$$$$",
"$$$$$$$$$$$$$ X@@#@@@@OOOOOOO@@@@#oo$$$$$$$$$$$$",
"$$$$$$$$$$$ XX###@OOOOOOOOOOOOOO@#@@XX$$$$$$$$$$",
"$$$$$$$$$$ X##@@OOOOOoooooooooOOOO@@##X$$$$$$$$$",
"$$$$$$$$$ X###@@OOOooooooooooooooOOO@@# $$$$$$$$",
"$$$$$$$$ X#@@OOOOooooooooooooooooooOO@@X $$$$$$$",
"$$$$$$$ X#@OOOooooooooooooooooooooooOO@#X.$$$$$$",
"$$$$$$$X@@OOoooooooooooooooooooooooooOOO#.$$$$$$",
"$$$$$$ O@OOoooooooooooooooooooooooooooOO@X $$$$$",
"$$$$$$XOOoooooooo............oooooooooOOO#X$$$$$",
"$$$$$ X@oooooXX..XXXXXXXXXXXXXXX..oooooOO#X $$$$",
"$$$$$ O@oooXXXXXXXXXXXXXXXXXXXXXX...ooooO@@.$$$$",
"$$$$$XOOooXXXXXXXXXXXXXXXXXXXXXXXX....ooO@@.$$$$",
"$$$$$XOoooXXXXXXXXXXXXXXXXXXXXXXXX.....oOO@.$$$$",
"$$$$$XO#oXXXXXXXXXXXXXXXXXXXXXXXXXX.. .ooO@.$$$$",
"$$$$$XOXoXXXXXXXXXXXXXXXXXXXXXXXXXX.. ..oO@.$$$$",
"$$$$$XoXXXXXXXXXXXXXXXXXXXXXXXXXXXX.  ..oO@ $$$$",
"$$$$$ ooXXXXXXXXXXXXXXXXXXXXXXXXXXX.   .o@X $$$$",
"$$$$$ oO.XXXXXXXXXXXXXXXXXXXXXXXXXX.   .O@X$$$$$",
"$$$$$$.O..XXXXXXXXXXXXXXXXXXXXXXXXX    .O# $$$$$",
"$$$$$$ XO.XXXXXXXXXXXXXXXXXXXXXXXXX    o#.$$$$$$",
"$$$$$$$ X..XXXXXXXXXXXXXXXXXXXXXX     O## $$$$$$",
"$$$$$$$$ XOXXXXXXXXXXXXXXXXXXXXXX    O## $$$$$$$",
"$$$$$$$$$ OOO  XXXXXXXXXXXXXXXX    O### $$$$$$$$",
"$$$$$$$$$$  XXXXXXXXXXXXXX      @@@##. $$$$$$$$$",
"$$$$$$$$$$$$   .....X..XXXOO@@@@@OO. $$$$$$$$$$$",
"$$$$$$$$$$$$$$$$           XXX   $$$$$$$$$$$$$$$",
"$$$$$$$$$$$$$$$$$$$$$$$$$$$$$$$$$$$$$$$$$$$$$$$$",
"$$$$$$$$$$$$$$$$$$$$$$$$$$$$$$$$$$$$$$$$$$$$$$$$",
"$$$$$$$$$$$$$$$$$$$$$$$$$$$$$$$$$$$$$$$$$$$$$$$$",
"$$$$$$$$$$$$$$$$$$$$$$$$$$$$$$$$$$$$$$$$$$$$$$$$",
"$$$$$$$$$$$$$$$$$$$$$$$$$$$$$$$$$$$$$$$$$$$$$$$$"
};
