/* XPM */
static char *result[] = {
/* columns rows colors chars-per-pixel */
"48 48 9 1 ",
"  c #B55758",
". c #CC6666",
"X c #E87D7D",
"o c #FA978E",
"O c #FCB0A9",
"+ c #FFCCCC",
"@ c #FFF5CF",
"# c white",
"$ c None",
/* pixels */
"$$$$$$$$$$$$$$$$$$$$$$$$$$$$$$$$$$$$$$$$$$$$$$$$",
"$$$$$$$$$$$$$$$$$$$$$$$$$$$$$$$$$$$$$$$$$$$$$$$$",
"$$$$$$$$$$$$$$$$$$$$$$$$$$$$$$$$$$$$$$$$$$$$$$$$",
"$$$$$$$$$$$$$$$$$$$$$$$$$$$$$$$$$$$$$$$$$$$$$$$$",
"$$$$$$$$$$$$$$$$$$$$$$$$$$$$$$$$$$$$$$$$$$$X$$$$",
"$$$$$$$$$$$$$$$$$$$$$$$$$$$$$$$$$$$$$$$$$$XX$$$$",
"$$$$$$$$$$$$$$$$$$$$$$$$$$$$$$$$$$$$$$$$$$$$$$$$",
"$$$$$$$$$$$$$$$$$$$$$$$$$$$$$$$$$$$$$$$$$$$$$$$$",
"$$$$$$$$$$$$$$$$$$$$$$$$$$$$$$$$$$$$$$$$$$$$$$$$",
"$$$$$$$$$$$$$$$$$$$$$$$$$$$$$$$$$$$$$$$$$$$$$$$$",
"$$$$$$$$$$$$$$$$$$$$$$$$$$$$$$$$$$$$$$$$$$$$$$$$",
"$$$$$$$$$$$$$$$$$$$$$$$$$$$$$$$$$$$$$$$$$$$$$$$$",
"$$$$$$$$$$$$$$$$$$$$$$$$$$$$$$$$$$$$$$$$$$$$$$$$",
"$$$$$$$$$$$$$$$$$$$$$$$$$$$$$$$$$$XX $$$$$$$$$$$",
"$$$$$$$$$$$$$$$$$$$$$$$$$$$$$$$$$X+@@ $$$$$$$$$$",
"$$$$$$$$$$$$$$$$$$$$$$  XXXX $$$$X@@@ $$$$$$$$$$",
"$$$$$$$$$$$$$$$$     XXOOOOOOXXX @#@+ $$$$$$$$$$",
"$$$$$$$$$$$$$ XXX####@@@@#######@@## $$$$$$$$$$$",
"$$$$$$$$$$$ XX###@@@@OOOOOO@@@@@@####X$$$$$$$$$$",
"$$$$$$$$$ XX##@@OOOOOoooooooooOOOO@@##X$$$$$$$$$",
"$$$$$$$$ X####@@OOOooooooooooooooOOO@@#X $$$$$$$",
"$$$$$$$ X#@@OOOOOoooooooooooooooooooOO@@X $$$$$$",
"$$$$$$ X#@OOOOoooooooooooooooooooooooOO@#X.$$$$$",
"$$$$$$X@@OOoooooooooooooooooooooooooooOOO#.$$$$$",
"$$$$$ O@OOoooooooooooooooooooooooooooooOO@X $$$$",
"$$$$$XOOooooooooo.............oooooooooOOO#X$$$$",
"$$$$ X@ooooooX...XXXXXXXXXXXXXXXX..oooooOO#X $$$",
"$$$$ O@ooooXXXXXXXXXXXXXXXXXXXXXXX...ooooO@@.$$$",
"$$$$XOOoooXXXXXXXXXXXXXXXXXXXXXXXXX. ..ooO@@.$$$",
"$$$$XOoooXXXXXXXXXXXXXXXXXXXXXXXXXX.  ..oOO@.$$$",
"$$$$XO#oXXXXXXXXXXXXXXXXXXXXXXXXXXXX. ..ooO@.$$$",
"$$$$XOXoXXXXXXXXXXXXXXXXXXXXXXXXXXXX.  ..oO@.$$$",
"$$$$XoXXXXXXXXXXXXXXXXXXXXXXXXXXXXXX.  ..oO@ $$$",
"$$$$ ooXXXXXXXXXXXXXXXXXXXXXXXXXXXXX.   .o@X $$$",
"$$$$ oO.XXXXXXXXXXXXXXXXXXXXXXXXXXXX.   .O@X$$$$",
"$$$$$.O..XXXXXXXXXXXXXXXXXXXXXXXXXXX    .O# $$$$",
"$$$$$ XO.XXXXXXXXXXXXXXXXXXXXXXXXXXX    o#.$$$$$",
"$$$$$$ X..XXXXXXXXXXXXXXXXXXXXXXXX     O## $$$$$",
"$$$$$$$ XOXXXXXXXXXXXXXXXXXXXXXXXX    O## $$$$$$",
"$$$$$$$$ OOO   XXXXXXXXXXXXXXXXX    O### $$$$$$$",
"$$$$$$$$$ .XXXXXX    XXXXXX     OO@@##. $$$$$$$$",
"$$$$$$$$$$$  .XXXXXXXXOOOOOOO@@@@@OX. $$$$$$$$$$",
"$$$$$$$$$$$$$$$.........XXX...   $$$$$$$$$$$$$$$",
"$$$$$$$$$$$$$$$$$$$$$$$$$$$$$$$$$$$$$$$$$$$$$$$$",
"$$$$$$$$$$$$$$$$$$$$$$$$$$$$$$$$$$$$$$$$$$$$$$$$",
"$$$$$$$$$$$$$$$$$$$$$$$$$$$$$$$$$$$$$$$$$$$$$$$$",
"$$$$$$$$$$$$$$$$$$$$$$$$$$$$$$$$$$$$$$$$$$$$$$$$",
"$$$$$$$$$$$$$$$$$$$$$$$$$$$$$$$$$$$$$$$$$$$$$$$$"
};
