/* XPM */
static char *result[] = {
/* columns rows colors chars-per-pixel */
"48 48 9 1 ",
"  c #B55758",
". c #CC6666",
"X c #E87D7D",
"o c #FA978E",
"O c #FCB0A9",
"+ c #FFCCCC",
"@ c #FFF5CF",
"# c white",
"$ c None",
/* pixels */
"$$$$$$$$$$$$$$$$$$$$$$$$$$$$$$$$$$$$$$$$$$$$$$$$",
"$$$$$$$$$$$$$$$$$$$$$$$$$$$$$$$$$$$$$$$$$$$$$$$$",
"$$$$$$$$$$$$$$$$$$$$$$$$$$$$$$$$$$$$$$$$$$$$$$$$",
"$$$$$$$$$$$$$$$$$$$$$$$$$$$$$$$$$$$$$$$$$$$$$$$$",
"$$$$$$$$$$$$$$$$$$$$$$$$$$$$$$$$$$$$$$$$$$$$$$$$",
"$$$$$$$$$$$$$$$$$$$$$$$$$$$$$$$$$$$$$$$$$$$$$$$$",
"$$$$$$$$$$$$$$$$$$$$$$$$$$$$$$$$$$$$$$$$$$$$$$$$",
"$$$$$$$$$$$$$$$$$$$$$$$$$$$$$$$$$$$$$$XX$$$$$$$$",
"$$$$$$$$$$$$$$$$$$$$$$$$$$$$$$$$$$$$$X@@ $$$$$$$",
"$$$$$$$$$$$$$$$$$$$$$$$$$$$$$$$$$$$$$ @@ $$$$$$$",
"$$$$$$$$$$$$$$$$$$$$$$$$$$$$$$$$$$$$$$ .$$$$$$$$",
"$$$$$$$$$$$$$$$$$$$$$$$$$$$$$$$$$$$$$$$$$$$$$$$$",
"$$$$$$$$$$$$$$$$$$$$$$  XXXX $$$$$$$$$$$$$$$$$$$",
"$$$$$$$$$$$$$$$$$$   XXOOOOOOXXXOOX$$$$$$$$$$$$$",
"$$$$$$$$$$$$$$$  XOOO@@@OOOO@@@++++X$$$$$$$$$$$$",
"$$$$$$$$$$$$$  @@#@@@OOOOOOOOO@@@#+ $$$$$$$$$$$$",
"$$$$$$$$$$$$  ###@@@OOOOOOOOOOO@##@@o$$$$$$$$$$$",
"$$$$$$$$$$$ X####@OOOOOOOOOOOOOO@###@o$$$$$$$$$$",
"$$$$$$$$$$ X###@OOOOOoooooooooOOOO@@##o$$$$$$$$$",
"$$$$$$$$$ X####@OOOooooooooooooooOOO@## $$$$$$$$",
"$$$$$$$$$ ##@@OOOooooooooooooooooooOO@# $$$$$$$$",
"$$$$$$$$ X#@OOOoooooooooooooooooooooOO##.$$$$$$$",
"$$$$$$$$X@@OOoooooooooooooooooooooooOOO#.$$$$$$$",
"$$$$$$$ O@OOoooooooooooooooooooooooooOO@X $$$$$$",
"$$$$$$$XOOoooooooo.........XoooooooooOOO#X$$$$$$",
"$$$$$$ X@ooooXX..XXXXXXXXXXXXXXXooooooOO#X $$$$$",
"$$$$$$ O@ooXXXXXXXXXXXXXXXXXXXXX..oooooO@@.$$$$$",
"$$$$$$XOOoXXXXXXXXXXXXXXXXXXXXXXX...oooO@@.$$$$$",
"$$$$$$XOoXXXXXXXXXXXXXXXXXXXXXXXX....ooOO@.$$$$$",
"$$$$$$XOoXXXXXXXXXXXXXXXXXXXXXXXXX....oXO@.$$$$$",
"$$$$$$XOXXXXXXXXXXXXXXXXXXXXXXXXXX....oXO@.$$$$$",
"$$$$$$XoXXXXXXXXXXXXXXXXXXXXXXXXXX.. .oXO@ $$$$$",
"$$$$$$ ooXXXXXXXXXXXXXXXXXXXXXXXXX.. .oX@X $$$$$",
"$$$$$$ oO.XXXXXXXXXXXXXXXXXXXXXXXX..  oO@X$$$$$$",
"$$$$$$$.O..XXXXXXXXXXXXXXXXXXXXXXX.   oO# $$$$$$",
"$$$$$$$ XO.XXXXXXXXXXXXXXXXXXXXXXX.  oo#.$$$$$$$",
"$$$$$$$$ X..XXXXXXXXXXXXXXXXXXXXX    O## $$$$$$$",
"$$$$$$$$$ XOXXXXXXXXXXXXXXXXXXXXX   O## $$$$$$$$",
"$$$$$$$$$$ OO  XXXXXXXXXXXXXXXX   O### $$$$$$$$$",
"$$$$$$$$$$$  XXXX      XXX       @##. $$$$$$$$$$",
"$$$$$$$$$$$$$  XXX..         O@@@@. $$$$$$$$$$$$",
"$$$$$$$$$$$$$$$  ...X..XXXOO@###o..$$$$$$$$$$$$$",
"$$$$$$$$$$$$$$$$$$$$$      XXX  $$$$$$$$$$$$$$$$",
"$$$$$$$$$$$$$$$$$$$$$$$$$$$$$$$$$$$$$$$$$$$$$$$$",
"$$$$$$$$$$$$$$$$$$$$$$$$$$$$$$$$$$$$$$$$$$$$$$$$",
"$$$$$$$$$$$$$$$$$$$$$$$$$$$$$$$$$$$$$$$$$$$$$$$$",
"$$$$$$$$$$$$$$$$$$$$$$$$$$$$$$$$$$$$$$$$$$$$$$$$",
"$$$$$$$$$$$$$$$$$$$$$$$$$$$$$$$$$$$$$$$$$$$$$$$$"
};
