/* XPM */
static char *_b701162d7934dd9d60fca457a5baa32KQYYp1eYELEKKAMx[] = {
/* columns rows colors chars-per-pixel */
"48 48 225 2 ",
"   c #2B2B15",
".  c #272818",
"X  c #303616",
"o  c #32351D",
"O  c #363B1C",
"+  c #393E1E",
"@  c #2F3017",
"#  c #373D28",
"$  c #3D411B",
"%  c #3B4226",
"&  c #3E442B",
"*  c #3F4231",
"=  c #42441D",
"-  c #424623",
";  c #454A24",
":  c #4A4E24",
">  c #414729",
",  c #454B2D",
"<  c #494D2C",
"1  c #4E5526",
"2  c #4D522C",
"3  c #4B572B",
"4  c #515326",
"5  c #52552C",
"6  c #55592C",
"7  c #5A5D2C",
"8  c #454C32",
"9  c #4A4E30",
"0  c #455331",
"q  c #4D5333",
"w  c #4E5B35",
"e  c #4D5D3A",
"r  c #4C513B",
"t  c #515635",
"y  c #545A35",
"u  c #595E34",
"i  c #505739",
"p  c #545B3A",
"a  c #595E3B",
"s  c #5D622D",
"d  c #5C6233",
"f  c #55613B",
"g  c #5C633C",
"h  c #5C693D",
"j  c #566638",
"k  c #62662F",
"l  c #646D2C",
"z  c #686F2F",
"x  c #626533",
"c  c #666933",
"v  c #6A6D35",
"b  c #62663C",
"n  c #646B3C",
"m  c #6A6D3B",
"M  c #6B7234",
"N  c #6D723B",
"B  c #61703F",
"V  c #717437",
"C  c #72753B",
"Z  c #75793C",
"A  c #797C3E",
"S  c #717936",
"D  c #68712B",
"F  c #535B41",
"G  c #5A5E46",
"H  c #5D6443",
"J  c #5C6C42",
"K  c #596648",
"L  c #5D724A",
"P  c #5C6751",
"I  c #616642",
"U  c #646B44",
"Y  c #696D43",
"T  c #656B4A",
"R  c #6A6E4B",
"E  c #6D7344",
"W  c #6C734C",
"Q  c #677549",
"!  c #727644",
"~  c #757B43",
"^  c #7A7D44",
"/  c #71764B",
"(  c #747B4C",
")  c #7A7E4C",
"_  c #666B51",
"`  c #647552",
"'  c #6B7352",
"]  c #6D7A54",
"[  c #67775D",
"{  c #727655",
"}  c #747B53",
"|  c #797E54",
" . c #757C5A",
".. c #797F5B",
"X. c #717458",
"o. c #767E61",
"O. c #807C56",
"+. c #7D8244",
"@. c #7D824B",
"#. c #778040",
"$. c #7C8254",
"%. c #7C835C",
"&. c #768259",
"*. c #7C8262",
"=. c #7C8A63",
"-. c #768565",
";. c #778F6F",
":. c #818445",
">. c #83854B",
",. c #85894C",
"<. c #8B8E4D",
"1. c #868946",
"2. c #90934F",
"3. c #828554",
"4. c #858A53",
"5. c #8A8D54",
"6. c #81865B",
"7. c #848A5C",
"8. c #8A8D5B",
"9. c #8E9155",
"0. c #8D915B",
"q. c #929454",
"w. c #989A57",
"e. c #92955C",
"r. c #96995C",
"t. c #9A9C5C",
"y. c #969956",
"u. c #8D904D",
"i. c #9EA15E",
"p. c #818663",
"a. c #858B64",
"s. c #898D64",
"d. c #858B6A",
"f. c #898E6B",
"g. c #868666",
"h. c #8C9265",
"j. c #8D936C",
"k. c #879268",
"l. c #939563",
"z. c #959962",
"x. c #9B9D64",
"c. c #92956C",
"v. c #949A6D",
"b. c #9C9E6A",
"n. c #8B8D74",
"m. c #8D9373",
"M. c #899973",
"N. c #919573",
"B. c #949A73",
"V. c #9A9D74",
"C. c #959C7A",
"Z. c #9A9D7B",
"A. c #949577",
"S. c #908964",
"D. c #A49E7B",
"F. c #9EA163",
"G. c #9EA16C",
"H. c #9CA176",
"J. c #9CA27C",
"K. c #90A47D",
"L. c #85A07A",
"P. c #A2A563",
"I. c #A3A56D",
"U. c #A6A96A",
"Y. c #A9AC6D",
"T. c #A4A864",
"R. c #A3A573",
"E. c #A7A973",
"W. c #AAAD74",
"Q. c #A2A57C",
"!. c #AAAD7B",
"~. c #A4A87C",
"^. c #AEB173",
"/. c #AEB17D",
"(. c #B2B57B",
"). c #B2B478",
"_. c #9B9F80",
"`. c #9EA382",
"'. c #96AB8A",
"]. c #A1A584",
"[. c #A4A984",
"{. c #AAAC86",
"}. c #A1A78A",
"|. c #A5AA8B",
" X c #A9AE8C",
".X c #ABB18D",
"XX c #ADB183",
"oX c #B2B583",
"OX c #B6B982",
"+X c #B8BA85",
"@X c #B1B68C",
"#X c #B7B88C",
"$X c #BABC8C",
"%X c #ADB292",
"&X c #B2B694",
"*X c #B5B995",
"=X c #BBBD93",
"-X c #B2B59A",
";X c #B5BA9B",
":X c #BABE9D",
">X c #A9AE90",
",X c #BBBFA2",
"<X c #BFC193",
"1X c #BCC09D",
"2X c #BDC08C",
"3X c #BCC2A4",
"4X c #BDC5AA",
"5X c #C1C394",
"6X c #C3C59C",
"7X c #C6C89A",
"8X c #C1C38F",
"9X c #C2C5A6",
"0X c #C6C8A3",
"qX c #C9CBA4",
"wX c #C2C5AB",
"eX c #C6CAAA",
"rX c #CCCEAB",
"tX c #D1D3AD",
"yX c #C9CCB4",
"uX c #CED1B7",
"iX c #D4D7BA",
"pX c #CDD0AC",
"aX c #DADCC1",
"sX c #E4E5D1",
"dX c #F5F7ED",
/* pixels */
" X) v.( *.} W %.' ' `.T p q > p U W N.m. .;X!.( 7.].B.M.3.} U g G d.p K {.eX3Xj.p.m.@.d q T _.].",
"%Xk.%.W =.s.E / v.%XJ.T > % & T Q W N.&X_.4X,Xj.N.%XJ.H.4.( ..I 8 p g *.3XuXuX%X$.d.] c R |.-X|.",
"V.j.p.d.h.f U / v.&XC.e X & H U %.A.3X|.}.,X`.j.c.K.j.N.@.n ..} * & H B.,XuXiX.X$.} 7.$.p i r K ",
"c.a.Z.J.a.} p U V.-Xm., i p H U a.V.[.}.>X9X'.J.B.B.Z.h.@.n I W > 8 n 7.3X;X[.$.$.j.W W b i > a ",
"%.j.Z. X%.[.g p J.J.U q & p ' W U p k.].>X X X-X|.h.j.Z.p.k.g q , t E 3.;X|.s.} p.A.B.p.~ ( g H ",
"T m.N.C.T `...} H.%.p 0 , H F H 2 > j.T i %.Z.[.[.7.h.B.B.H.p 8 > s ( $.Z.6.&.].>XC.}.].0.@.U d.",
", n.B.T y f.J.|.B.7.6 % W m.C.' % q a.W I q H p.v.%.6.J.h.M.d n 3 y 3.%.j.$.( ;X>X..C.%X[.$.n W ",
"y [.`.> i } &X XH.4.3 % H a.Z.q $ ` -X4X.Xc.%.3X{.K.&.h.$.E W @.u U a.| j.7./  Xm.] 6.p.3XJ.+.S ",
"U -Xp.T  .|.&XJ.G.4.w X 2 / } ; t &.yXdXeX.Xs.}.~.H.J.v.h.E $.+.i y 7.7.b.h.&.} J.} g ...X%X0.n ",
"$.}.( f.|.3X*Xz.A 9.d X b $.( q b ( ].sX&XD.v.R 6.h W 7.@.~ k.$.g g R.XXG.$.( y ..j.p } [.;XN.$.",
"J.T I } ;XwXQ.e.Z +.d , Y ) >.c m 8.6X#XG.uXeX| p g & h +.B $.+.y H Q.oXG.! ( E < T g W B.%X:X8.",
"&XF g a T ;X@Xz.A N 7 ; ! 4.C V x r.iX8.3XsXeX].$.6.p 2 M s U @.@.u 8.x.r.) v.5.; & , w d.`..XM.",
"g.q q p T }.[.! : x 5 : 3.5.c O.m !.sX5.qXeXuXrXv.7.C 2 y n n 7.4.5 @.^ x.x.m c 1 6 & q ] `.;X*.",
"%.H , H } |.Y x N x : 6 R.y.Z Z h.=X=X%XiXz.;X6XqXz.A v 6 3 n 7.b 2 3.^ OX9.s 6 N d w q E `.9Xd.",
"*.j.W %.E Y ) U.q.7 6 m $Xl.m x.S.=XD.eX9Xv @X.XiXqXF.M v u ~ ( y 6 C x u.t.v ) m d x 6 Y H.3Xm.",
"eXg.H J.:Xx.OX^.P.N k u Q.#X3.$X*XaXQ.9Xs.b.$X<X<XoX2X1.V c v N m ) : = c i.5.E.) 6 s s U B.1Xj.",
";X{ ..*XqXtX$Xw.w.:.~ 7 x E./.7X5X!.qX0X5X6X7X+X!.5.E.e.,.9.Z c V ,.7 = 7 2.y.x.>.4 5 y N j.;X`.",
"N.o.' I 8.R.$Xy.q.<.^ k Y =X+X<X$XI.iXpX5X#X=XW.l.F.x.E.9.E.P.A :.O.A Z C y.2.1.>.v u t d d.3X.X",
"_.@X*Xc.5 ) $Xw.y.9.c x u E.5XaX$X8.qXqX/.!.5X+XY.I.x.2XY.+X8XY.i.>.5.P.>.y.q.>.A Z x q 3 p.4XA.",
"n.yXyX{.E !.).i.U.q.m x < l.5XrX5X:.l.6X6X(.e.3.9.e.O.w.U.+X7X(.^.Y.F.I.>.y.2.A c x 7 < , ..}.T ",
"t A.{.*X!.7X).t.P.t.r.C 4 } 6XXX=X8.s I.5X(.2.7 O.Y.u.O.9.9.!.W.4.!.e.Y.q.i.t.Z 7 = : < 9 O.B.H ",
"I k.v.6X(.+XT.P.P.r.R.v s 2 E.*XQ.D.! 9.tX7X,.O.i.w.:.C 4.e.e.>.C oX6X$Xw.Y.^.<.k : 4 4 { ].H.| ",
"j.d...=X+X^.P.t.t.t.U.^ Z 7 m 5XR.Q.3.! 5XqXx.,.2.O.V 4 m 9.3.l.D.I.tX+XU.^.^.U.A : = 4 6.c.8.E ",
"} J.9XqX).^.i.y.w.F.U.q.5.>.x #X#Xl.b.m D.7Xb.,.l l C v 7 m l.>.9.! l.oX(.^.+XY.:.4 x b.Q.s.j.g ",
"p B.qX5XY.T.t.P.1.O.q.i.O.R.4.v.E.R.!.3.8.OX3.x.V k A 2.V 7 V Z 5.I.8.m x.R.R.(.<.6 | XXj.3X|.} ",
"T ' | w.Y.P.q.I.t.A c F.>.O.b.u g.:X0XR.) D.9.>.V c :.w.:.V v k k e.W.,.C !.=Xx.9.k f.0Xf.iXA.*.",
"H q y m W.P.:.x.T.2.v 3.x.) D.6 : C.*XI.l.b./.:.1.C u.2.O.C c v v v F.Y.^ 3.6X7X>.x l.rXh. X`.n.",
"H q y k q.>.4.I.Y.w.Z s XX6.{.! n u A.=XI.!.I.>.r.Z :.O.A A v 7 v v C O.8.) 3.2Xb.k e.7Xc.-X X&.",
"u R @.^ O.O.T.$X).P.:.7 B.%..XQ.C 6 t V.@XoXb.!.W.>.O./.W.C 7 7 C c V m <.:.O.4.z.~ e.7X3.j.|.W ",
"g R l.<.D 1.P.^.P.i.1.C ) a.J.*X~ k 2 ; v.tXW.6X8XY.Y.(.W.C 7 7 1.V V x C A A :.^ c b.rX4.N j.d.",
"f.! r.r.O.<.<.<.^ G.q.C Y s.f.3X5.v y ; Y qX=X6X(.^.(.).).^ 4 V 1.A V c : m O.e.(.! g.9X4.S U W ",
"*.@.l.W.q.>.4./.z.m ) 5.d Y *..Xv.v d q < &X:XtX(.).$XY.q.c 4 v A O.V x 5 b b 7.!.6./ @X0.#.B H ",
"p h.0.oX+.@.C e.W.Z d V.m R g. XJ.$.N 2 # } H.%XqX+X/.9.:.k 7 C y.>.v k / J.E V.J.c.n &XH.,.~ U ",
"U H.b.E.Z s m ~ b.8.7 V.! R n.-XJ.h.U g , , < E 3XtX!.z.+.) Z <.y.C k 4 v..X( 7.[.;Xp.C.`.f.} J ",
"&.[.h.!.A l W u 8.@Xx V.6.o.N.`.s.7 X.v.M s , O H N.] , = 8.F.q.<.V k = N.[.~ / J.Z.&XC.p.v.g N ",
"6.[.H.@X,.V h.Q f.=Xm g.S.X._.p.< % }.V.z l j 8 # % 2 2 % > 6.G.r.V s O *.3X@.E ]. .n.|.&.@.( +.",
"Z.Z.H. Xz.#.%.v.N.*X~ g.o.A._.t o ' -X7.D S N i q 8 q ( p ; H @Xe.~ 5 + C.*X6.h -X_.U J.%.U a ( ",
"g.].~.J.l.@.U k.p.|./ p.t X.Z.5 o n. Xb s d / n i q f @.d d < C.V.$.< 2 J.g...H ' m.U A.a.f.i d ",
"%.' d.J.H.#.D ! $.J...y : < C.y @  .| Q $.~ m.( n s S +.d 3 o > B.B.5 O u C.6.u i t t g B.%XH s ",
"p.2 i d.k.n 6 a.} k...5 6 6 c.<   d.} 6 h d ( v Z M l D s : o   8 n , # q } | 7 d *./ q o..X} H ",
"/ g 2 %.( b = *.%.d.U s z M $.; = W 8 X 1 4 y 7 d n d d b : % . .     : g } } x 2 6.] % 3 / &.g ",
"b Y / h.( b # U %.7.Z z ~ U ! B s d 2 = ; H [ _ F _ U u g < # .   . . q d N d 6 2 n #.3 s d ^ 6 ",
"H -.M.K.%.U 8 T } ! l n ] %.] M.h.} / d _ n.n.o.[ K W  .T F # # # > % 9 w p 3 6 7 & w 3 3 0 d 6 ",
"J M.`.Z.f.O.a d n g d Q L W ] K.m.=.` / D.[.A.;.o.T g.g._ K 8 r G G y m g i K q f [ &.K 0 0 0 w ",
"k.D.D.D.S.S.W d h h j ] ` Q Q p.{ ] $.} [.{.'.;.` H A.n.-.-.F 8 I x m m g e e q &.M.;.` w 0 0 w ",
"Z.D.Q.Q.A.l.| U E Q J h L ( 4.j.W f j J &.&.'.;._.-X,X-X}.'.-.p Y n ^ ! y 0 9 t =.-.` K e e q W ",
"Z.J.C.A.J.c.3.} W J f j p { *X-Xm.K f h h j &.1X4X,X,XyX'.d.T g N E | >.g ; q p ` ` ` K e e ' Z.",
"s.v.S.c.M.j.7.%.} Y U U m } }.C.-.&.T g g Q -X-XM.'.O.n.m.h } %.U h J a g u f n h J P K e e k.J."
};
